<?xml version="1.0" encoding="UTF-8"?>
<!DOCTYPE svg PUBLIC "-//W3C//DTD SVG 1.1//EN" "http://www.w3.org/Graphics/SVG/1.1/DTD/svg11.dtd">
<!-- Creator: CorelDRAW 2021 (64 Bit) -->
<svg xmlns="http://www.w3.org/2000/svg" xml:space="preserve" width="95px" height="31px" version="1.1" style="shape-rendering:geometricPrecision; text-rendering:geometricPrecision; image-rendering:optimizeQuality; fill-rule:evenodd; clip-rule:evenodd"
viewBox="0 0 95 30.88"
 xmlns:xlink="http://www.w3.org/1999/xlink"
 xmlns:xodm="http://www.corel.com/coreldraw/odm/2003">
 <defs>
  <style type="text/css">
   <![CDATA[
    .fil0 {fill:#373435;fill-rule:nonzero}
   ]]>
  </style>
 </defs>
 <g id="Camada_x0020_1">
  <metadata id="CorelCorpID_0Corel-Layer"/>
  <path id="envelope.svg" class="fil0" d="M24.67 14.19c0.08,-0.35 0.4,-0.61 0.77,-0.61 0,0 0,0 0,0l4.71 0c0,0 0,0 0,0 0.36,0 0.68,0.26 0.76,0.61l-3.12 1.91 -3.12 -1.91zm-0.02 0.45l0 2.79 2.28 -1.4 -2.28 -1.39zm2.66 1.63l-2.58 1.58c0.13,0.27 0.4,0.44 0.71,0.44 0,0 0,0 0,0l4.71 0c0,0 0,0 0,0 0.3,0 0.58,-0.17 0.71,-0.44l-2.58 -1.59 -0.49 0.3 -0.48 -0.3 0 0.01zm3.61 1.38l0.01 -0.22 0 -2.79 -2.28 1.39 2.27 1.62z"/>
 </g>
</svg>
